<svg width="42" height="39" viewBox="0 0 42 39" fill="none" xmlns="http://www.w3.org/2000/svg">
<path d="M41.2641 33.718L33.1175 26.1244C32.7498 25.7817 32.2514 25.5913 31.7284 25.5913H30.3965C32.6517 22.9026 33.9918 19.5209 33.9918 15.8422C33.9918 7.09091 26.3845 0 16.9959 0C7.6073 0 0 7.09091 0 15.8422C0 24.5935 7.6073 31.6844 16.9959 31.6844C20.9426 31.6844 24.5705 30.4353 27.4549 28.3332V29.5747C27.4549 30.0621 27.6592 30.5267 28.0269 30.8694L36.1735 38.463C36.9416 39.179 38.1836 39.179 38.9435 38.463L41.2559 36.3076C42.024 35.5916 42.024 34.4339 41.2641 33.718ZM16.9959 25.5913C11.2189 25.5913 6.53689 21.2346 6.53689 15.8422C6.53689 10.4574 11.2108 6.09315 16.9959 6.09315C22.7729 6.09315 27.4549 10.4498 27.4549 15.8422C27.4549 21.227 22.781 25.5913 16.9959 25.5913Z" fill="black"/>
</svg>
